<svg width="50" height="50" viewBox="0 0 50 50" fill="none" xmlns="http://www.w3.org/2000/svg">
<mask id="mask0_972_25" style="mask-type:luminance" maskUnits="userSpaceOnUse" x="0" y="0" width="50" height="50">
<path d="M50 0H0V50H50V0Z" fill="white"/>
</mask>
<g mask="url(#mask0_972_25)">
<path d="M25.0001 50.0002C38.8073 50.0002 50.0002 38.8073 50.0002 25.0001C50.0002 11.1929 38.8073 0 25.0001 0C11.1929 0 0 11.1929 0 25.0001C0 38.8073 11.1929 50.0002 25.0001 50.0002Z" fill="#279744"/>
<path fill-rule="evenodd" clip-rule="evenodd" d="M0.013916 25.8376C0.013916 25.8376 6.16078 19.6907 11.3324 14.5191C13.188 12.6635 15.7047 11.6211 18.3289 11.6211C20.953 11.6211 23.4698 12.6635 25.3253 14.5191C28.16 17.3538 31.202 20.3957 33.0821 22.2759C33.5622 22.756 33.8264 23.4107 33.8139 24.0895C33.8015 24.7683 33.5135 25.4129 33.0161 25.8751C33.0133 25.8777 33.0104 25.8803 33.0076 25.883C32.1146 26.7127 30.7241 26.6831 29.8673 25.816C29.1944 25.1351 28.3459 24.2764 27.4146 23.3338C22.3096 18.1675 13.989 18.0992 8.79982 23.181C4.67194 27.2234 0.743541 31.0706 0.743541 31.0706C0.322964 29.3871 0.0732441 27.6363 0.013916 25.8376Z" fill="white"/>
<path fill-rule="evenodd" clip-rule="evenodd" d="M48.961 17.8506C49.4602 19.5238 49.7888 21.2702 49.9265 23.0697C49.9265 23.0697 43.0761 29.9201 37.5152 35.481C35.6596 37.3366 33.1429 38.379 30.5187 38.379C27.8945 38.379 25.3778 37.3366 23.5223 35.481C20.5528 32.5115 17.318 29.2768 15.3004 27.2591C14.7775 26.7363 14.4898 26.0233 14.5034 25.284C14.5169 24.5447 14.8306 23.8427 15.3722 23.3394C15.388 23.3247 15.4038 23.3101 15.4195 23.2955C16.2707 22.5045 17.5962 22.5328 18.4129 23.3593C19.2111 24.167 20.2728 25.2414 21.4385 26.4212C26.5435 31.5875 34.8641 31.6558 40.0533 26.5741C44.5454 22.1748 48.961 17.8506 48.961 17.8506Z" fill="white"/>
</g>
</svg>
