<svg xmlns="http://www.w3.org/2000/svg" width="24" height="24" viewBox="0 0 24 24" fill="none">
  <path d="M12 24C18.6274 24 24 18.6274 24 12C24 5.37258 18.6274 0 12 0C5.37258 0 0 5.37258 0 12C0 18.6274 5.37258 24 12 24Z" fill="#26A69A"/>
  <path d="M17.4016 5.3999H6.60156V8.3999H17.4016V5.3999Z" fill="white"/>
  <path d="M12.0008 10.2C9.32658 10.2 4.80078 10.6422 4.80078 12.3C4.80078 13.9578 9.32658 14.4 12.0008 14.4C14.675 14.4 19.2008 13.9578 19.2008 12.3C19.2008 10.6422 14.675 10.2 12.0008 10.2ZM12.0008 13.2C8.68698 13.2 6.00078 12.663 6.00078 12C6.00078 11.337 8.68698 10.8 12.0008 10.8C15.3146 10.8 18.0008 11.337 18.0008 12C18.0008 12.663 15.3146 13.2 12.0008 13.2Z" fill="white"/>
  <path d="M12.0012 11.9999C12.6582 11.9999 13.257 11.9777 13.8012 11.9411V5.3999H10.2012V11.9411C10.7454 11.9777 11.3442 11.9999 12.0012 11.9999Z" fill="white"/>
  <path d="M13.035 13.1808C12.9684 13.1832 12.9012 13.185 12.8334 13.1868C12.5604 13.1946 12.2844 13.2 12.0012 13.2C11.718 13.2 11.442 13.1946 11.169 13.1874C11.1012 13.1856 11.034 13.1838 10.9674 13.1814C10.7064 13.1724 10.4496 13.161 10.2012 13.1454V19.2H13.8012V13.1448C13.5528 13.1604 13.296 13.1718 13.035 13.1808Z" fill="white"/>
</svg>